<svg width="15" height="15" viewBox="0 0 15 15" fill="none" xmlns="http://www.w3.org/2000/svg">
<path fill-rule="evenodd" clip-rule="evenodd" d="M5.72114 2.58005C5.64116 2.20678 5.10852 2.20676 5.02853 2.58005L4.18241 6.52861C3.97246 7.50838 3.1066 8.20836 2.10458 8.20836H1.12484C0.733636 8.20836 0.416504 7.89123 0.416504 7.50003C0.416504 7.10882 0.733636 6.79169 1.12484 6.79169H2.10458C2.43859 6.79169 2.72721 6.55837 2.79719 6.23178L3.64331 2.28322C4.04325 0.416834 6.70642 0.416817 7.10636 2.28321L9.27853 12.42C9.35852 12.7933 9.89116 12.7933 9.97114 12.42L10.8173 8.47144C11.0272 7.49167 11.8931 6.79169 12.8951 6.79169H13.8748C14.266 6.79169 14.5832 7.10882 14.5832 7.50003C14.5832 7.89123 14.266 8.20836 13.8748 8.20836H12.8951C12.5611 8.20836 12.2725 8.44168 12.2025 8.76828L11.3564 12.7168C10.9564 14.5832 8.29325 14.5832 7.89331 12.7168L5.72114 2.58005Z" fill="#343434"/>
</svg>
