<svg width="20" height="20" viewBox="0 0 20 20" fill="currentColor" xmlns="http://www.w3.org/2000/svg">
<path d="M8 17.748V14.4C8 13.117 8.995 12.108 10.467 11.532C9.5177 11.1789 8.51283 10.9988 7.5 11C5.61 11 3.864 11.617 2.453 12.66C2.89051 13.8973 3.62509 15.0083 4.59225 15.8955C5.55941 16.7826 6.72957 17.4187 8 17.748ZM16.88 14.086C16.485 13.553 15.17 13 13.5 13C11.494 13 10 13.797 10 14.4V18C11.3878 18.0008 12.752 17.6403 13.9583 16.954C15.1646 16.2678 16.1715 15.2794 16.88 14.086ZM7.55 9.5C8.14674 9.5 8.71903 9.26295 9.14099 8.84099C9.56295 8.41903 9.8 7.84674 9.8 7.25C9.8 6.65326 9.56295 6.08097 9.14099 5.65901C8.71903 5.23705 8.14674 5 7.55 5C6.95326 5 6.38097 5.23705 5.95901 5.65901C5.53705 6.08097 5.3 6.65326 5.3 7.25C5.3 7.84674 5.53705 8.41903 5.95901 8.84099C6.38097 9.26295 6.95326 9.5 7.55 9.5ZM13.5 10.5C14.0304 10.5 14.5391 10.2893 14.9142 9.91421C15.2893 9.53914 15.5 9.03043 15.5 8.5C15.5 7.96957 15.2893 7.46086 14.9142 7.08579C14.5391 6.71071 14.0304 6.5 13.5 6.5C12.9696 6.5 12.4609 6.71071 12.0858 7.08579C11.7107 7.46086 11.5 7.96957 11.5 8.5C11.5 9.03043 11.7107 9.53914 12.0858 9.91421C12.4609 10.2893 12.9696 10.5 13.5 10.5ZM10 20C4.477 20 0 15.523 0 10C0 4.477 4.477 0 10 0C15.523 0 20 4.477 20 10C20 15.523 15.523 20 10 20Z" fill="#606060"/>
</svg>
